<svg width="512" height="512" viewBox="0 0 512 512" fill="none" xmlns="http://www.w3.org/2000/svg">
<rect width="512" height="512" rx="120" fill="#00ADD8"/>
<path d="M165.5 350.5C136.5 350.5 112 339 96 319.5L138.5 285C146 295.5 156 300 166 300C180.5 300 188.5 291 188.5 277V268H165H138V222.5H239V274.5C239 321.5 210.5 350.5 165.5 350.5ZM328.5 350.5C282.5 350.5 251.5 316.5 251.5 264.5C251.5 213 283.5 178.5 328.5 178.5C374 178.5 405.5 213 405.5 264.5C405.5 316.5 374 350.5 328.5 350.5ZM328.5 303.5C345 303.5 355 289.5 355 264.5C355 239.5 345 225.5 328.5 225.5C312 225.5 302 239.5 302 264.5C302 289.5 312 303.5 328.5 303.5Z" fill="white"/>
</svg>
